<?xml version="1.0" standalone="no"?>
<!DOCTYPE svg PUBLIC "-//W3C//DTD SVG 20010904//EN"
 "http://www.w3.org/TR/2001/REC-SVG-20010904/DTD/svg10.dtd">
<svg version="1.0" xmlns="http://www.w3.org/2000/svg"
 width="512.000000pt" height="512.000000pt" viewBox="0 0 512.000000 512.000000"
 preserveAspectRatio="xMidYMid meet">

<g transform="translate(0.000000,512.000000) scale(0.100000,-0.100000)"
fill="#000000" stroke="none">
<path d="M111 5014 c-60 -30 -100 -83 -108 -141 -3 -23 40 -312 107 -728 l111
-689 277 -425 c295 -452 343 -513 447 -568 99 -52 155 -63 332 -70 90 -3 163
-7 163 -8 0 -2 -34 -96 -76 -211 -74 -204 -75 -209 -60 -241 17 -35 50 -49 92
-39 31 8 43 35 140 303 l69 193 288 0 c158 0 287 -3 287 -6 0 -5 -460 -1332
-530 -1531 l-12 -33 -216 0 c-187 0 -222 2 -252 18 -45 22 -83 93 -75 138 3
18 55 167 115 332 61 164 110 310 110 323 0 14 -7 35 -16 47 -20 30 -87 31
-111 2 -26 -30 -244 -637 -250 -695 -9 -86 18 -158 85 -225 84 -83 111 -90
359 -90 112 0 203 -1 203 -3 0 -2 -18 -54 -40 -116 -60 -167 -55 -260 19 -357
25 -33 57 -59 100 -81 l63 -33 1366 0 c1126 0 1376 3 1418 14 70 19 149 63
198 111 53 52 326 425 358 490 45 89 48 127 48 633 0 443 -2 480 -19 518 -48
105 -176 132 -264 55 -18 -16 -279 -398 -582 -850 l-549 -821 -969 0 c-1074 0
-1015 -4 -1057 65 -11 18 -20 50 -20 72 0 26 117 377 344 1029 l343 989 107 7
c124 9 215 37 299 92 66 44 110 91 173 186 26 39 51 67 54 63 279 -309 1152
-1267 1176 -1291 59 -56 134 -33 134 42 0 32 -53 93 -615 710 -338 372 -615
678 -615 680 0 3 80 128 179 278 98 150 183 283 189 294 6 12 62 332 123 710
101 625 110 693 99 734 -33 128 -166 186 -286 125 -27 -14 -134 -83 -239 -153
-178 -119 -190 -129 -193 -161 -4 -41 29 -81 68 -81 18 0 99 47 235 135 115
74 216 135 226 135 26 0 51 -30 47 -54 -2 -12 -44 -272 -94 -578 -49 -307 -91
-558 -94 -558 -3 0 -130 192 -284 425 -153 234 -287 430 -297 435 -11 6 -348
10 -888 10 l-870 0 -338 221 c-186 122 -352 228 -370 235 -49 21 -103 17 -162
-12z m420 -329 c173 -113 313 -211 311 -218 -5 -17 -496 -767 -503 -767 -3 0
-45 246 -93 548 -48 301 -90 561 -93 578 -6 34 16 64 46 64 10 0 160 -92 332
-205z m2432 -725 c164 -250 301 -461 304 -467 8 -19 -510 -804 -559 -849 -22
-20 -66 -48 -97 -63 l-56 -26 -322 -3 -323 -3 0 192 0 193 90 92 c100 101 109
126 65 169 -43 43 -70 34 -157 -52 l-77 -77 -80 77 c-88 86 -114 95 -156 52
-44 -43 -35 -68 65 -169 l90 -92 0 -193 0 -192 -322 3 -323 3 -61 28 c-35 16
-81 49 -107 75 -38 40 -527 775 -544 818 -3 8 123 210 298 479 l304 465 835
-3 835 -2 298 -455z m2005 -2643 c2 -427 1 -472 -16 -520 -21 -63 -292 -438
-358 -495 -74 -66 -108 -72 -426 -72 l-279 0 522 780 c376 563 526 780 538
778 14 -3 16 -48 19 -471z"/>
</g>
</svg>
